<?xml version="1.0" encoding="utf-8"?>
<!-- Generator: Adobe Illustrator 21.1.0, SVG Export Plug-In . SVG Version: 6.00 Build 0)  -->
<svg version="1.1" id="Layer_1" xmlns="http://www.w3.org/2000/svg" xmlns:xlink="http://www.w3.org/1999/xlink" x="0px" y="0px"
	 viewBox="0 0 512 512" style="enable-background:new 0 0 512 512;" xml:space="preserve">
<style type="text/css">
	.st0{fill:#FCFCFC;}
</style>
<g transform="translate(0.000000,512.000000) scale(0.100000,-0.100000)">
	<path class="st0" d="M65,5111c-11-5-29-19-40-31c-19-21-20-38-23-481c-3-511-3-507,63-535c19-8,59-14,90-14h55V2560V1070h-47
		c-76,0-121-17-144-53C1,986,0,967,2,523L5,60l28-27L60,5l460-3c512-3,508-3,536,63c8,19,14,59,14,90v55h1490h1490v-55
		c0-31,6-71,14-90c28-66,24-66,536-63l460,3l27,28l28,27l3,463c2,444,1,463-17,494c-23,36-68,53-143,53h-48v1490v1490h55
		c31,0,71,6,90,14c66,28,66,24,63,536l-3,460l-28,27l-27,28l-460,3c-512,3-508,3-536-63c-8-19-14-59-14-90v-55H2560H1070v55
		c0,31-6,71-14,90c-28,65-25,65-523,64C287,5119,76,5115,65,5111z M850,4590v-320H530H210v320v320h320h320V4590z M4910,4590v-320
		h-320h-320v320v320h320h320V4590z M4050,4419c0-226,3-276,16-304c29-61,50-65,353-65h271V2561V1071l-282-3c-310-3-314-4-343-64
		c-12-26-15-83-15-303V430H2560H1070v271c0,220-3,277-15,303c-29,60-33,61-342,64l-283,3v1490v1489h271c303,0,324,4,353,65
		c13,28,16,78,16,304v271h1490h1490V4419z M850,530V210H530H210v320v320h320h320V530z M4910,530V210h-320h-320v320v320h320h320V530z
		"/>
	<path class="st0" d="M2541,4133c-26-25-87-200-501-1446l-472-1417l19-38c21-44,78-76,117-66c57,14,70,42,191,405l117,349l600-2
		l601-3l116-346c64-191,124-356,135-368c32-35,79-45,121-25c36,17,65,57,65,91c0,15-920,2785-945,2846c-10,25-57,47-99,47
		C2581,4160,2562,4152,2541,4133z M3135,2149c5-15-42-16-523-15l-529,1l259,775c142,426,261,782,264,790
		C2611,3711,3010,2541,3135,2149z"/>
</g>
</svg>
