<?xml version="1.0" standalone="no"?>
<!DOCTYPE svg PUBLIC "-//W3C//DTD SVG 20010904//EN"
 "http://www.w3.org/TR/2001/REC-SVG-20010904/DTD/svg10.dtd">
<svg version="1.0" xmlns="http://www.w3.org/2000/svg"
 width="512.000000pt" height="512.000000pt" viewBox="0 0 512.000000 512.000000"
 preserveAspectRatio="xMidYMid meet">

<g transform="translate(0.000000,512.000000) scale(0.100000,-0.100000)"
fill="#000000" stroke="none">
<path d="M1052 4463 c-18 -9 -45 -32 -60 -51 l-27 -35 -3 -743 -2 -742 77 34
c43 18 115 43 160 56 l83 23 0 578 0 577 800 0 800 0 2 -445 3 -445 130 217
c72 120 143 232 158 250 l28 32 -3 304 -3 304 -27 35 c-55 72 16 68 -1090 68
-899 0 -996 -2 -1026 -17z"/>
<path d="M3365 3680 c-17 -5 -44 -24 -61 -42 -17 -18 -169 -264 -338 -545
l-307 -513 54 -67 c30 -38 76 -101 102 -141 l47 -74 268 447 c148 246 272 451
277 456 4 4 220 -353 479 -794 l472 -802 -659 -3 -659 -2 0 -53 c0 -28 -7 -97
-15 -151 -8 -55 -15 -103 -15 -108 0 -4 374 -8 830 -8 919 0 874 -3 926 66 24
31 29 47 29 93 -1 56 -3 59 -624 1116 -343 583 -631 1068 -640 1079 -35 40
-113 62 -166 46z"/>
<path d="M1400 2863 c-52 -8 -141 -29 -197 -48 -204 -68 -347 -157 -504 -314
-157 -157 -246 -300 -314 -504 -124 -372 -65 -783 158 -1117 64 -96 241 -273
337 -337 442 -295 998 -295 1440 0 96 64 273 241 337 337 295 442 295 998 0
1440 -64 96 -241 273 -337 337 -274 183 -598 256 -920 206z m363 -318 c199
-35 366 -122 513 -269 269 -270 354 -650 224 -1009 -91 -251 -316 -476 -567
-567 -359 -130 -739 -45 -1009 224 -269 270 -354 650 -224 1009 91 251 316
476 568 567 161 58 331 74 495 45z"/>
</g>
</svg>
