<?xml version="1.0" encoding="utf-8"?>
<!-- Generator: Adobe Illustrator 21.1.0, SVG Export Plug-In . SVG Version: 6.00 Build 0)  -->
<svg version="1.1" id="Layer_1" xmlns="http://www.w3.org/2000/svg" xmlns:xlink="http://www.w3.org/1999/xlink" x="0px" y="0px"
	 viewBox="0 0 512 512" style="enable-background:new 0 0 512 512;" xml:space="preserve">
<style type="text/css">
	.st0{fill:#FFFFFF;}
</style>
<g transform="translate(0.000000,512.000000) scale(0.100000,-0.100000)">
	<path class="st0" d="M830,5104c-42-18-86-58-108-99c-15-27-17-109-20-871l-3-842l-92-4c-112-5-179-32-235-92c-81-88-77-39-77-946
		c0-801,0-805,21-851c54-116,140-169,291-177l92-5l3-536c3-588,1-562,65-623C832-4,706,0,2560,0s1728-4,1793,58c64,61,62,35,65,623
		l3,536l92,5c151,8,237,61,291,177c21,46,21,50,21,851c0,907,4,858-77,946c-56,60-123,87-235,92l-93,4l-1,302c-1,165-4,312-8,326
		c-8,30-994,1160-1033,1184c-24,15-138,16-1270,16C1020,5119,861,5117,830,5104z M3230,4390v-530l29-32l29-33l466-3l466-3v-249v-250
		H2560H900v815v815h1165h1165V4390z M1770,2875v-145h-205h-205v-605v-605h-170h-170v605v605H820H620v145v145h575h575V2875z
		 M2369,2838c48-101,103-218,122-260c19-43,36-78,39-78s20,39,39,88c19,48,70,165,114,260l80,172h194h193l-14-22
		c-29-48-397-689-402-702c-4-11,275-507,418-743l20-33h-196h-196l-136,272l-136,273l-20-50c-10-28-65-150-120-273l-102-222h-194
		h-194l19,33c11,17,108,188,217,379l198,347l-206,364c-113,200-206,367-206,371c0,3,86,6,191,6h191L2369,2838z M4405,2875v-140
		l-202-3l-203-2v-605v-605h-170h-170v605v605l-202,2l-203,3l-3,143l-3,142l578-2l578-3V2875z M4220,740V260H2560H900v480v480h1660
		h1660V740z"/>
</g>
</svg>
